<svg height="300px" width="300px" fill="#000000" xmlns="http://www.w3.org/2000/svg" xmlns:xlink="http://www.w3.org/1999/xlink" version="1.1" x="0px" y="0px" viewBox="0 0 100 100" style="enable-background:new 0 0 100 100;" xml:space="preserve"><g><path d="M77.2,36.7C77.2,36.7,77.2,36.7,77.2,36.7l-0.1-0.1c-0.1-0.1-0.1-0.1-0.2-0.2L55.5,15.1c0,0-0.1-0.1-0.1-0.1L55.3,15   c0,0,0,0,0,0c-1.1-1-2.5-1.6-4.1-1.6H26.3c-2.3,0-4.2,1.9-4.2,4.2v64.9c0,2.3,1.9,4.2,4.2,4.2h48.2c2.3,0,4.2-1.9,4.2-4.2V40.6   C78.7,39.1,78.1,37.7,77.2,36.7z M57.3,19.7l15.1,15.1H61.1c-2.1,0-3.9-1.7-3.9-3.9V19.7z M76.7,82.4c0,1.2-1,2.2-2.2,2.2H26.3   c-1.2,0-2.2-1-2.2-2.2V17.5c0-1.2,1-2.2,2.2-2.2h24.9c1.1,0,2.1,0.4,2.8,1.2l0.1,0.1c0.7,0.7,1.2,1.7,1.2,2.8v11.5   c0,3.2,2.6,5.9,5.9,5.9h11.7c1,0,2,0.4,2.7,1.1l0.1,0.1c0.7,0.7,1.1,1.6,1.1,2.7V82.4z"/><path d="M68.2,42.8H32.7c-0.6,0-1,0.4-1,1s0.4,1,1,1h35.5c0.6,0,1-0.4,1-1S68.7,42.8,68.2,42.8z"/><path d="M32.7,34.5H47c0.6,0,1-0.4,1-1s-0.4-1-1-1H32.7c-0.6,0-1,0.4-1,1S32.1,34.5,32.7,34.5z"/><path d="M32.7,28.9H47c0.6,0,1-0.4,1-1s-0.4-1-1-1H32.7c-0.6,0-1,0.4-1,1S32.1,28.9,32.7,28.9z"/><path d="M32.7,23.2H47c0.6,0,1-0.4,1-1s-0.4-1-1-1H32.7c-0.6,0-1,0.4-1,1S32.1,23.2,32.7,23.2z"/><path d="M68.2,48.3H32.7c-0.6,0-1,0.4-1,1s0.4,1,1,1h35.5c0.6,0,1-0.4,1-1S68.7,48.3,68.2,48.3z"/><path d="M68.2,53.8H32.7c-0.6,0-1,0.4-1,1s0.4,1,1,1h35.5c0.6,0,1-0.4,1-1S68.7,53.8,68.2,53.8z"/><path d="M68.2,59.3H32.7c-0.6,0-1,0.4-1,1s0.4,1,1,1h35.5c0.6,0,1-0.4,1-1S68.7,59.3,68.2,59.3z"/><path d="M68.2,64.8H32.7c-0.6,0-1,0.4-1,1s0.4,1,1,1h35.5c0.6,0,1-0.4,1-1S68.7,64.8,68.2,64.8z"/><path d="M68.2,70.3H32.7c-0.6,0-1,0.4-1,1s0.4,1,1,1h35.5c0.6,0,1-0.4,1-1S68.7,70.3,68.2,70.3z"/><path d="M68.2,75.8H32.7c-0.6,0-1,0.4-1,1s0.4,1,1,1h35.5c0.6,0,1-0.4,1-1S68.7,75.8,68.2,75.8z"/></g></svg>