<?xml version="1.0" encoding="UTF-8" standalone="no"?>
<svg
   xmlns:dc="http://purl.org/dc/elements/1.1/"
   xmlns:cc="http://creativecommons.org/ns#"
   xmlns:rdf="http://www.w3.org/1999/02/22-rdf-syntax-ns#"
   xmlns:svg="http://www.w3.org/2000/svg"
   xmlns="http://www.w3.org/2000/svg"
   xmlns:sodipodi="http://sodipodi.sourceforge.net/DTD/sodipodi-0.dtd"
   xmlns:inkscape="http://www.inkscape.org/namespaces/inkscape"
   height="300px"
   width="300px"
   fill="#000000"
   version="1.1"
   x="0px"
   y="0px"
   viewBox="-255 347 100 100"
   enable-background="new -255 347 100 100"
   xml:space="preserve"
   id="svg4"
   sodipodi:docname="folder.svg"
   inkscape:version="0.92.3 (2405546, 2018-03-11)"><metadata
     id="metadata10"><rdf:RDF><cc:Work
         rdf:about=""><dc:format>image/svg+xml</dc:format><dc:type
           rdf:resource="http://purl.org/dc/dcmitype/StillImage" /></cc:Work></rdf:RDF></metadata><defs
     id="defs8" /><sodipodi:namedview
     pagecolor="#ffffff"
     bordercolor="#666666"
     borderopacity="1"
     objecttolerance="10"
     gridtolerance="10"
     guidetolerance="10"
     inkscape:pageopacity="0"
     inkscape:pageshadow="2"
     inkscape:window-width="1366"
     inkscape:window-height="705"
     id="namedview6"
     showgrid="false"
     inkscape:zoom="0.78666667"
     inkscape:cx="-19.067797"
     inkscape:cy="150"
     inkscape:window-x="-8"
     inkscape:window-y="-8"
     inkscape:window-maximized="1"
     inkscape:current-layer="svg4" /><path
     fill-rule="evenodd"
     clip-rule="evenodd"
     d="M-164.4,427.6c0,2.2-1.8,4-4,4h-72.1c-2.2,0-4-1.8-4-4l-4-44.1c0-2.2,1.8-4,4-4  h80.2c2.2,0,4,1.8,4,4L-164.4,427.6z M-242.6,367.4c0-2.2,1.8-4,4-4c0,0,9.9,0,22.1,0c2.8,0,5.8,8,8.8,8c18,0,37.3,0,37.3,0  c2.2,0,4,1.8,4,4v2h-76.1V367.4z"
     id="path2" /><path
     style="opacity:1;fill:#00ffff;fill-opacity:1;stroke:none;stroke-width:1.27318823;stroke-miterlimit:4;stroke-dasharray:none"
     d="m 35.579103,249.055 c -1.810033,-2.15108 -3.315988,-4.86825 -3.346569,-6.03813 -0.03058,-1.16987 -2.814638,-31.8728 -6.186792,-68.22873 -5.475011,-59.02728 -5.938667,-66.525 -4.332291,-70.05692 0.989396,-2.17538 3.228334,-4.60652 4.975419,-5.402545 2.30492,-1.050192 36.662086,-1.447319 125.21373,-1.447319 133.34686,0 127.85828,-0.305814 130.49022,7.270694 0.88371,2.54392 -0.49394,21.88054 -4.91601,69.00049 -3.37908,36.00636 -6.15769,66.79719 -6.1747,68.42405 -0.017,1.62688 -1.70302,4.63006 -3.7467,6.67373 l -3.71577,3.71578 H 151.35486 38.870068 Z"
     id="path4532"
     inkscape:connector-curvature="0"
     transform="matrix(0.33333333,0,0,0.33333333,-255,347)" /><path
     style="opacity:1;fill:#00ffff;fill-opacity:1;stroke:none;stroke-width:1.27318823;stroke-miterlimit:4;stroke-dasharray:none"
     d="m 38.401016,74.682203 c -0.215898,-8.564618 0.147851,-16.90201 0.80833,-18.527536 2.479891,-6.103341 5.588137,-6.578396 43.041904,-6.578396 39.93283,0 35.60737,-1.255538 47.04917,13.656818 3.34919,4.365063 7.16538,8.512309 8.48043,9.216101 1.50541,0.805674 24.11609,1.279624 61.04692,1.279624 h 58.65594 l 3.71576,3.715775 c 2.72183,2.721818 3.71578,4.932067 3.71578,8.262712 v 4.546936 H 151.85441 38.793558 Z"
     id="path4534"
     inkscape:connector-curvature="0"
     transform="matrix(0.33333333,0,0,0.33333333,-255,347)" /></svg>